<svg width="800" height="600" xmlns="http://www.w3.org/2000/svg" style="">

 <g>
  <title>Layer 1</title>
  <text transform="rotate(-90 375.591 287.069) matrix(6.9834 0 0 6.78788 -1112.91 -1102.59)" stroke="#b2b2b2" font-style="normal" font-weight="normal" xml:space="preserve" text-anchor="start" font-family="monospace" font-size="14" id="svg_1" y="213.4375" x="177.4082" stroke-width="0" fill="#999999">&lt;NEVGOD/&gt;</text>
  <path id="svg_2" d="m228,61.5" opacity="NaN" stroke-width="0" stroke="#000" fill="#000000" class="xOdSZVBN_0"></path>
  <path d="m236,53.5c0,1 -3.02473,3.97226 -12,12c-10.02773,8.96909 -16.87627,12.15717 -27,20c-7.9053,6.12422 -13.84151,14.8295 -22,25c-2.65474,3.30944 -10.13951,9.89571 -14,20c-2.52368,6.60538 -3.48169,12.87997 -5,20c-1.47472,6.91557 -2.49829,11.93796 -3,18c-0.4124,4.98296 0.64073,10.05165 0,14c-0.50655,3.12144 -1,8 -1,12c0,6 0,12 0,18c0,5 0,10 0,15c0,6 0,16 0,18c0,7 0,14 0,21l1,4" id="svg_6" stroke-width="0" stroke="#000" fill="none" class="xOdSZVBN_1"></path>
  <path id="svg_11" d="m178,273.5" opacity="NaN" stroke-width="0" stroke="#000" fill="#000000" class="xOdSZVBN_2"></path>
  <path stroke="#b2b2b2" id="svg_12" fill="none" d="M137.99999000000003,289.5A250,250 0,1,1 637.99999,289.5A250,250 0,1,1 137.99999000000003,289.5" class="xOdSZVBN_3"></path>
 </g>
<style data-made-with="vivus-instant">.xOdSZVBN_0{stroke-dasharray:0 2;stroke-dashoffset:1;animation:xOdSZVBN_draw_0 19200ms linear 0ms infinite,xOdSZVBN_fade 19200ms linear 0ms infinite;}.xOdSZVBN_1{stroke-dasharray:250 252;stroke-dashoffset:251;animation:xOdSZVBN_draw_1 19200ms linear 0ms infinite,xOdSZVBN_fade 19200ms linear 0ms infinite;}.xOdSZVBN_2{stroke-dasharray:0 2;stroke-dashoffset:1;animation:xOdSZVBN_draw_2 19200ms linear 0ms infinite,xOdSZVBN_fade 19200ms linear 0ms infinite;}.xOdSZVBN_3{stroke-dasharray:1572 1574;stroke-dashoffset:1573;animation:xOdSZVBN_draw_3 19200ms linear 0ms infinite,xOdSZVBN_fade 19200ms linear 0ms infinite;}@keyframes xOdSZVBN_draw{100%{stroke-dashoffset:0;}}@keyframes xOdSZVBN_fade{0%{stroke-opacity:1;}97.91666666666667%{stroke-opacity:1;}100%{stroke-opacity:0;}}@keyframes xOdSZVBN_draw_0{4.166666666666666%{stroke-dashoffset: 1}82.29166666666666%{ stroke-dashoffset: 0;}100%{ stroke-dashoffset: 0;}}@keyframes xOdSZVBN_draw_1{4.166666666666666%{stroke-dashoffset: 251}82.29166666666666%{ stroke-dashoffset: 0;}100%{ stroke-dashoffset: 0;}}@keyframes xOdSZVBN_draw_2{4.166666666666666%{stroke-dashoffset: 1}82.29166666666666%{ stroke-dashoffset: 0;}100%{ stroke-dashoffset: 0;}}@keyframes xOdSZVBN_draw_3{4.166666666666666%{stroke-dashoffset: 1573}82.29166666666666%{ stroke-dashoffset: 0;}100%{ stroke-dashoffset: 0;}}</style></svg>